<svg width="1200" height="900" viewBox="0 0 1200 900" fill="none" xmlns="http://www.w3.org/2000/svg">
  <rect width="1200" height="900" fill="#152033"/>
  <circle cx="214" cy="186" r="172" fill="#C89D48" fill-opacity="0.2"/>
  <circle cx="995" cy="697" r="260" fill="#7D96A8" fill-opacity="0.22"/>
  <rect x="94" y="116" width="1012" height="668" rx="36" fill="#1D2A41" stroke="#41506A"/>
  <rect x="166" y="190" width="868" height="44" rx="22" fill="#2B3850"/>
  <rect x="166" y="270" width="534" height="236" rx="28" fill="#C89D48" fill-opacity="0.16"/>
  <rect x="724" y="270" width="310" height="236" rx="28" fill="#7D96A8" fill-opacity="0.16"/>
  <rect x="166" y="544" width="868" height="52" rx="26" fill="#2B3850"/>
  <rect x="166" y="630" width="392" height="52" rx="26" fill="#2B3850"/>
  <path d="M252 278C296 352 386 432 548 482" stroke="#E8D4A7" stroke-width="20" stroke-linecap="round"/>
  <path d="M790 326C830 352 876 388 930 440" stroke="#C7D4DE" stroke-width="16" stroke-linecap="round"/>
  <text x="166" y="154" fill="#F5F4EF" font-family="Arial, sans-serif" font-size="34" font-weight="700">Acting Europe</text>
  <text x="166" y="734" fill="#B7C2CE" font-family="Arial, sans-serif" font-size="28">Festival platform and cultural experience</text>
</svg>
