<svg width="1200" height="900" viewBox="0 0 1200 900" fill="none" xmlns="http://www.w3.org/2000/svg">
  <rect width="1200" height="900" fill="#F2EFE7"/>
  <circle cx="962" cy="214" r="190" fill="#D8B15F" fill-opacity="0.16"/>
  <circle cx="258" cy="774" r="230" fill="#8FA5B0" fill-opacity="0.18"/>
  <rect x="140" y="126" width="920" height="648" rx="42" fill="#FBFAF6" stroke="#DCD4C5"/>
  <rect x="214" y="194" width="772" height="54" rx="27" fill="#ECE7DD"/>
  <rect x="214" y="294" width="772" height="380" rx="34" fill="#172033" fill-opacity="0.05"/>
  <rect x="278" y="348" width="250" height="272" rx="26" fill="#D8B15F" fill-opacity="0.18"/>
  <rect x="566" y="348" width="356" height="64" rx="24" fill="#FFFFFF"/>
  <rect x="566" y="444" width="356" height="64" rx="24" fill="#FFFFFF"/>
  <rect x="566" y="540" width="240" height="64" rx="24" fill="#FFFFFF"/>
  <path d="M344 390V584" stroke="#916C22" stroke-width="18" stroke-linecap="round"/>
  <path d="M402 390V584" stroke="#916C22" stroke-width="18" stroke-linecap="round"/>
  <path d="M566 381H862" stroke="#172033" stroke-width="14" stroke-linecap="round"/>
  <path d="M566 477H820" stroke="#566174" stroke-width="14" stroke-linecap="round"/>
  <path d="M566 573H744" stroke="#566174" stroke-width="14" stroke-linecap="round"/>
  <text x="214" y="164" fill="#172033" font-family="Arial, sans-serif" font-size="34" font-weight="700">Livrea</text>
  <text x="214" y="732" fill="#566174" font-family="Arial, sans-serif" font-size="28">Reading and productivity app near launch</text>
</svg>
