<svg width="1200" height="900" viewBox="0 0 1200 900" fill="none" xmlns="http://www.w3.org/2000/svg">
  <rect width="1200" height="900" fill="#F3F0E8"/>
  <circle cx="950" cy="162" r="196" fill="#D8B15F" fill-opacity="0.22"/>
  <circle cx="234" cy="744" r="228" fill="#90A5B0" fill-opacity="0.22"/>
  <rect x="102" y="104" width="996" height="692" rx="38" fill="#F9F8F4" stroke="#D7D0C2"/>
  <rect x="172" y="180" width="856" height="54" rx="27" fill="#EAE5DA"/>
  <rect x="172" y="278" width="412" height="422" rx="32" fill="#D8B15F" fill-opacity="0.14"/>
  <rect x="620" y="278" width="408" height="192" rx="32" fill="#8FA5B0" fill-opacity="0.12"/>
  <rect x="620" y="508" width="408" height="192" rx="32" fill="#172033" fill-opacity="0.06"/>
  <path d="M232 642L306 584L392 520L470 456L530 408" stroke="#916C22" stroke-width="18" stroke-linecap="round"/>
  <path d="M698 380H944" stroke="#172033" stroke-width="14" stroke-linecap="round"/>
  <path d="M698 430H904" stroke="#566174" stroke-width="14" stroke-linecap="round"/>
  <path d="M698 610H944" stroke="#172033" stroke-width="14" stroke-linecap="round"/>
  <path d="M698 660H868" stroke="#566174" stroke-width="14" stroke-linecap="round"/>
  <text x="172" y="150" fill="#172033" font-family="Arial, sans-serif" font-size="34" font-weight="700">Pautalia</text>
  <text x="172" y="748" fill="#566174" font-family="Arial, sans-serif" font-size="28">Real estate platform in development</text>
</svg>
